<?xml version="1.0" encoding="UTF-8" standalone="no"?>
<!-- Created with Inkscape (http://www.inkscape.org/) -->

<svg
   xmlns:dc="http://purl.org/dc/elements/1.1/"
   xmlns:cc="http://creativecommons.org/ns#"
   xmlns:rdf="http://www.w3.org/1999/02/22-rdf-syntax-ns#"
   xmlns:svg="http://www.w3.org/2000/svg"
   xmlns="http://www.w3.org/2000/svg"
   xmlns:sodipodi="http://sodipodi.sourceforge.net/DTD/sodipodi-0.dtd"
   xmlns:inkscape="http://www.inkscape.org/namespaces/inkscape"
   version="1.1"
   id="svg2"
   xml:space="preserve"
   width="707.54901"
   height="1000"
   viewBox="0 0 707.54902 999.99999"
   sodipodi:docname="EHF Champions League Logo.svg"
   inkscape:version="0.92.2 (5c3e80d, 2017-08-06)"><metadata
     id="metadata8"><rdf:RDF><cc:Work
         rdf:about=""><dc:format>image/svg+xml</dc:format><dc:type
           rdf:resource="http://purl.org/dc/dcmitype/StillImage" /><dc:title></dc:title></cc:Work></rdf:RDF></metadata><defs
     id="defs6"><clipPath
       clipPathUnits="userSpaceOnUse"
       id="clipPath46"><path
         d="M 0,0 H 419.528 V 595.276 H 0 Z"
         id="path44"
         inkscape:connector-curvature="0" /></clipPath><clipPath
       clipPathUnits="userSpaceOnUse"
       id="clipPath54"><path
         d="M 20.3465,584.701 H 166.882 V 565.929 H 20.3465 Z"
         id="path52"
         inkscape:connector-curvature="0" /></clipPath><clipPath
       clipPathUnits="userSpaceOnUse"
       id="clipPath72"><path
         d="M 232.56,33.433 H 345.79 V 155.74 H 232.56 Z"
         id="path70"
         inkscape:connector-curvature="0" /></clipPath><clipPath
       clipPathUnits="userSpaceOnUse"
       id="clipPath138"><path
         d="m 239.569,33.433 h 99.212 V 155.74 h -99.212 z"
         id="path136"
         inkscape:connector-curvature="0" /></clipPath><clipPath
       clipPathUnits="userSpaceOnUse"
       id="clipPath154"><path
         d="M 232.56,33.433 H 345.79 V 155.74 H 232.56 Z"
         id="path152"
         inkscape:connector-curvature="0" /></clipPath><linearGradient
       x1="0"
       y1="0"
       x2="1"
       y2="0"
       gradientUnits="userSpaceOnUse"
       gradientTransform="matrix(-53.352301,44.767968,44.767968,53.352301,330.2807,80.072736)"
       spreadMethod="pad"
       id="linearGradient186"><stop
         style="stop-opacity:1;stop-color:#8b7034"
         offset="0"
         id="stop180" /><stop
         style="stop-opacity:1;stop-color:#d9cc60"
         offset="0.7"
         id="stop182" /><stop
         style="stop-opacity:1;stop-color:#8b7034"
         offset="1"
         id="stop184" /></linearGradient><clipPath
       clipPathUnits="userSpaceOnUse"
       id="clipPath196"><path
         d="m 80.987,33.433 h 86.538 V 155.74 H 80.987 Z"
         id="path194"
         inkscape:connector-curvature="0" /></clipPath><linearGradient
       x1="0"
       y1="0"
       x2="1"
       y2="0"
       gradientUnits="userSpaceOnUse"
       gradientTransform="matrix(-53.35245,44.768025,44.768025,53.35245,159.02521,80.072773)"
       spreadMethod="pad"
       id="linearGradient278"><stop
         style="stop-opacity:1;stop-color:#8d7539"
         offset="0"
         id="stop272" /><stop
         style="stop-opacity:1;stop-color:#d9cd62"
         offset="0.7"
         id="stop274" /><stop
         style="stop-opacity:1;stop-color:#8d7539"
         offset="1"
         id="stop276" /></linearGradient><clipPath
       clipPathUnits="userSpaceOnUse"
       id="clipPath366"><path
         d="M 0,0 H 419.528 V 595.276 H 0 Z"
         id="path364"
         inkscape:connector-curvature="0" /></clipPath><clipPath
       clipPathUnits="userSpaceOnUse"
       id="clipPath374"><path
         d="M 20.3465,577.583 H 143.866 V 558.811 H 20.3465 Z"
         id="path372"
         inkscape:connector-curvature="0" /></clipPath></defs><sodipodi:namedview
     pagecolor="#ffffff"
     bordercolor="#666666"
     borderopacity="1"
     objecttolerance="10"
     gridtolerance="10"
     guidetolerance="10"
     inkscape:pageopacity="0"
     inkscape:pageshadow="2"
     inkscape:window-width="3840"
     inkscape:window-height="2107"
     id="namedview4"
     showgrid="false"
     inkscape:zoom="1.682015"
     inkscape:cx="348.06426"
     inkscape:cy="530.49112"
     inkscape:window-x="-8"
     inkscape:window-y="-8"
     inkscape:window-maximized="1"
     inkscape:current-layer="g10" /><g
     id="g10"
     inkscape:groupmode="layer"
     inkscape:label="ehfcl2021_media_guide_gp_draw_men"
     transform="matrix(1.3333333,0,0,-1.3333333,0,999.99998)"><g
       id="g40"><g
         id="g42"
         clip-path="url(#clipPath46)"><g
           id="g48"><g
             id="g50" /><g
             id="g58"><g
               clip-path="url(#clipPath54)"
               id="g56"
               style="opacity:0.5" /></g></g></g></g><g
       id="g1227"
       transform="matrix(6.1321254,0,0,6.1321254,-496.62244,-205.01721)"><g
         id="g190"><g
           clip-path="url(#clipPath196)"
           id="g192"><g
             transform="translate(89.6238,58.2109)"
             id="g198"><path
               inkscape:connector-curvature="0"
               id="path200"
               style="fill:#11152a;fill-opacity:1;fill-rule:nonzero;stroke:none"
               d="M 0,0 C 0,1.09 -0.08,1.411 -0.609,1.411 -1.138,1.411 -1.218,1.09 -1.218,0 v -5.514 c 0,-1.09 0.08,-1.411 0.609,-1.411 0.529,0 0.609,0.321 0.609,1.411 v 1.555 h 2.404 v -1.715 c 0,-2.581 -1.074,-3.655 -3.013,-3.655 -1.94,0 -3.013,1.074 -3.013,3.655 V 0.16 c 0,2.581 1.073,3.655 3.013,3.655 1.939,0 3.013,-1.074 3.013,-3.655 V -1.555 H 0 Z" /></g><g
             transform="translate(99.6253,61.8654)"
             id="g202"><path
               inkscape:connector-curvature="0"
               id="path204"
               style="fill:#11152a;fill-opacity:1;fill-rule:nonzero;stroke:none"
               d="m 0,0 v -12.823 h -2.404 v 5.209 h -1.507 v -5.209 H -6.316 V 0 h 2.405 v -5.209 h 1.507 V 0 Z" /></g><g
             transform="translate(104.3451,53.6267)"
             id="g206"><path
               inkscape:connector-curvature="0"
               id="path208"
               style="fill:#11152a;fill-opacity:1;fill-rule:nonzero;stroke:none"
               d="M 0,0 -0.433,5.69 -0.882,0 Z M 0.192,-2.404 H -1.074 L -1.25,-4.585 h -2.404 l 1.57,12.824 H 1.202 L 2.773,-4.585 H 0.369 Z" /></g><g
             transform="translate(116.1018,61.8654)"
             id="g210"><path
               inkscape:connector-curvature="0"
               id="path212"
               style="fill:#11152a;fill-opacity:1;fill-rule:nonzero;stroke:none"
               d="m 0,0 v -12.823 h -2.404 v 5.498 l -0.994,-5.498 H -4.52 l -0.994,5.498 v -5.498 H -7.918 V 0 h 2.404 L -3.959,-7.405 -2.404,0 Z" /></g><g
             transform="translate(121.0941,56.7522)"
             id="g214"><path
               inkscape:connector-curvature="0"
               id="path216"
               style="fill:#11152a;fill-opacity:1;fill-rule:nonzero;stroke:none"
               d="m 0,0 v 1.619 c 0,0.93 -0.321,1.09 -1.25,1.09 V -1.09 C -0.321,-1.09 0,-0.929 0,0 M 2.404,1.619 V 0 c 0,-2.549 -0.913,-3.446 -3.654,-3.494 V -7.71 H -3.654 V 5.113 h 2.404 c 2.741,0 3.654,-0.913 3.654,-3.494" /></g><path
             inkscape:connector-curvature="0"
             id="path218"
             style="fill:#11152a;fill-opacity:1;fill-rule:nonzero;stroke:none"
             d="m 127.184,49.042 h -2.404 v 12.823 h 2.404 z" /><g
             transform="translate(132.089,58.2109)"
             id="g220"><path
               inkscape:connector-curvature="0"
               id="path222"
               style="fill:#11152a;fill-opacity:1;fill-rule:nonzero;stroke:none"
               d="M 0,0 C 0,1.09 -0.08,1.411 -0.609,1.411 -1.138,1.411 -1.218,1.09 -1.218,0 v -5.514 c 0,-1.09 0.08,-1.411 0.609,-1.411 0.529,0 0.609,0.321 0.609,1.411 z m 2.404,0.16 v -5.834 c 0,-2.581 -1.074,-3.655 -3.013,-3.655 -1.94,0 -3.013,1.074 -3.013,3.655 V 0.16 c 0,2.581 1.073,3.655 3.013,3.655 1.939,0 3.013,-1.074 3.013,-3.655" /></g><g
             transform="translate(142.6517,61.8654)"
             id="g224"><path
               inkscape:connector-curvature="0"
               id="path226"
               style="fill:#11152a;fill-opacity:1;fill-rule:nonzero;stroke:none"
               d="m 0,0 v -12.823 h -2.404 l -2.068,6.331 v -6.331 H -6.877 V 0 h 2.405 l 2.068,-6.331 V 0 Z" /></g><g
             transform="translate(149.9038,52.3763)"
             id="g228"><path
               inkscape:connector-curvature="0"
               id="path230"
               style="fill:#11152a;fill-opacity:1;fill-rule:nonzero;stroke:none"
               d="m 0,0 c 0,-2.26 -0.85,-3.494 -2.949,-3.494 -2.1,0 -3.078,0.913 -3.078,4.616 h 2.405 c 0,-1.891 0.224,-2.212 0.673,-2.212 0.448,0 0.545,0.321 0.545,1.09 0,0.93 -0.161,1.315 -1.218,2.18 -1.171,0.946 -2.405,1.715 -2.405,4.136 0,2.099 0.882,3.334 2.901,3.334 2.02,0 2.966,-1.235 2.966,-3.976 h -2.405 c 0,1.251 -0.192,1.571 -0.561,1.571 -0.368,0 -0.496,-0.32 -0.496,-0.929 0,-0.93 0.416,-1.299 1.314,-1.988 C -0.962,3.302 0,2.421 0,0" /></g><g
             transform="translate(103.4677,35.9979)"
             id="g232"><path
               inkscape:connector-curvature="0"
               id="path234"
               style="fill:#11152a;fill-opacity:1;fill-rule:nonzero;stroke:none"
               d="m 0,0 v -2.404 h -4.568 v 12.823 h 2.404 L -2.164,0 Z" /></g><g
             transform="translate(107.0415,44.0126)"
             id="g236"><path
               inkscape:connector-curvature="0"
               id="path238"
               style="fill:#11152a;fill-opacity:1;fill-rule:nonzero;stroke:none"
               d="M 0,0 V -2.805 H 2.164 V -5.209 H 0 v -2.806 h 2.164 v -2.404 H -2.404 V 2.404 H 2.164 V 0 Z" /></g><g
             transform="translate(114.0296,38.178)"
             id="g240"><path
               inkscape:connector-curvature="0"
               id="path242"
               style="fill:#11152a;fill-opacity:1;fill-rule:nonzero;stroke:none"
               d="M 0,0 -0.433,5.69 -0.882,0 Z M 0.192,-2.404 H -1.074 L -1.25,-4.585 h -2.404 l 1.57,12.824 H 1.202 L 2.773,-4.585 H 0.369 Z" /></g><g
             transform="translate(121.2182,41.2073)"
             id="g244"><path
               inkscape:connector-curvature="0"
               id="path246"
               style="fill:#11152a;fill-opacity:1;fill-rule:nonzero;stroke:none"
               d="m 0,0 v 1.555 c 0,1.09 -0.096,1.41 -0.609,1.41 -0.529,0 -0.609,-0.32 -0.609,-1.41 v -5.514 c 0,-1.09 0.08,-1.411 0.609,-1.411 0.529,0 0.609,0.321 0.609,1.411 v 0.593 h -0.609 v 2.404 H 2.404 V -7.614 H 1.443 L 1.058,-6.7 c -0.497,-0.625 -1.17,-1.074 -2.036,-1.074 -1.731,0 -2.644,1.074 -2.644,3.654 v 5.835 c 0,2.581 1.073,3.655 3.013,3.655 1.939,0 3.013,-1.074 3.013,-3.655 V 0 Z" /></g><g
             transform="translate(131.0433,37.0878)"
             id="g248"><path
               inkscape:connector-curvature="0"
               id="path250"
               style="fill:#11152a;fill-opacity:1;fill-rule:nonzero;stroke:none"
               d="m 0,0 c 0,-2.581 -1.074,-3.654 -3.013,-3.654 -1.94,0 -3.014,1.073 -3.014,3.654 v 9.329 h 2.405 V 0.16 c 0,-1.089 0.08,-1.41 0.609,-1.41 0.529,0 0.609,0.321 0.609,1.41 V 9.329 H 0 Z" /></g><g
             transform="translate(134.8417,44.0126)"
             id="g252"><path
               inkscape:connector-curvature="0"
               id="path254"
               style="fill:#11152a;fill-opacity:1;fill-rule:nonzero;stroke:none"
               d="M 0,0 V -2.805 H 2.164 V -5.209 H 0 v -2.806 h 2.164 v -2.404 H -2.404 V 2.404 H 2.164 V 0 Z" /></g><g
             transform="translate(103.9329,67.6924)"
             id="g256"><path
               inkscape:connector-curvature="0"
               id="path258"
               style="fill:#11152a;fill-opacity:1;fill-rule:nonzero;stroke:none"
               d="M 0,0 26.995,3.842 28.188,7.514 -0.149,0.459 Z m 21.096,8.041 0.392,0.692 v 7.829 l -0.392,0.496 7.092,1.766 V 16.86 l -4.091,-1.021 v -1.784 l 2.823,0.699 v -1.86 l -2.823,-0.703 10e-4,-3.402 z m -4.57,-0.542 v 2.872 L 13.034,9.502 V 6.63 6.036 l -3.023,-0.753 0.393,0.692 v 7.829 l -0.393,0.496 3.023,0.752 v -0.593 -2.814 l 3.492,0.87 v 2.814 l -0.393,0.495 3.001,0.747 V 15.978 8.149 7.555 L 16.133,6.808 Z M 8.212,4.834 V 6.74 L 7.072,6.456 4.228,5.748 v 1.7 L 7.07,8.155 v 1.864 l -2.842,-0.707 0.047,1.582 3.366,0.85 0.571,0.142 V 13.85 L 1.619,12.209 1.226,12.111 1.619,11.615 V 3.786 L 1.226,3.094 Z" /></g></g></g><g
         id="g260"><g
           id="g262"><g
             id="g268"><g
               id="g270"><path
                 inkscape:connector-curvature="0"
                 id="path280"
                 style="fill:url(#linearGradient278);stroke:none"
                 d="m 108.195,117.214 c -14.886,-3.72 -26.714,-6.679 -26.714,-6.679 v 0 l -0.494,-1.501 21.107,-6.356 -10.527,-25.083 h 2.211 l 11.359,24.167 45.332,-13.65 -11.226,29.08 c 13.772,1.928 24.543,3.436 24.543,3.436 v 0 l 3.739,11.394 c -0.129,-0.021 -14.253,-3.546 -31.02,-7.735 v 0 l -12.141,31.453 z m 15.672,24.399 5.819,-19.028 c -5.586,-1.396 -11.289,-2.822 -16.728,-4.181 v 0 z m -16.799,-35.742 3.429,7.295 c 6.86,0.961 14.195,1.988 21.162,2.964 v 0 l 4.776,-15.617 z m -21.135,3.856 c 4.574,0.64 11.918,1.669 20.314,2.844 v 0 l -2.554,-6.085 z" /></g></g></g></g></g></g></svg>