<?xml version="1.0" encoding="utf-8"?>
<!-- Generator: Adobe Illustrator 18.0.0, SVG Export Plug-In . SVG Version: 6.00 Build 0)  -->
<!DOCTYPE svg PUBLIC "-//W3C//DTD SVG 1.1//EN" "http://www.w3.org/Graphics/SVG/1.1/DTD/svg11.dtd">
<svg version="1.1" id="UFCL_x5F_Logo_x5F_P_x5F_RGB_x5F_Black_x5F_On_x5F_Light"
	 xmlns="http://www.w3.org/2000/svg" xmlns:xlink="http://www.w3.org/1999/xlink" x="0px" y="0px" viewBox="0 0 340.2 340.2" width="170.1" height="170.1"
	 enable-background="new 0 0 340.2 340.2" xml:space="preserve">
<g id="UFCL_x5F_Logo_x5F_P_x5F_RGB_x5F_Black_x5F_On_x5F_Light_1_">
	<g id="UFCL_x5F_WordMark_x5F_RGB_x5F_Black_x5F_On_x5F_Light">
		<g id="CHAMPIONS_LEAGUE_1_">
			<path id="LEGAUE_1_" d="M105.5,330.8H120v3.4h-18.3V308h3.9V330.8z M126.5,322.2h13.3v-3.4h-13.3v-7.3h14.5V308h-18.4v26.2h18.8
				v-3.4h-14.9V322.2z M157.4,308l10,26.1h-4.2l-2.5-6.9h-10.9l-2.5,6.9h-4.1l10.1-26.1H157.4z M155.3,312.5l-4.2,11.4h8.4
				L155.3,312.5z M185,330.3c-1.7,0.5-4.5,0.7-5.8,0.7c-5.6,0-8.3-3.1-8.3-9.7c0-6.7,3.1-10.1,9.2-10.1c2.6,0,5.1,0.3,7.3,1l0.4,0.1
				v-3.1l-0.2-0.1c-2.2-1.1-5.6-1.5-7.8-1.5c-4.8,0-12.9,1.8-12.9,13.7c0,9,3.9,13.1,12.2,13.1c2.8,0,6.8-0.6,9.5-1.9l0.2-0.1v-11.8
				l-3.9,0V330.3z M209.3,324.4c0,4.3-2.4,6.7-6.7,6.7c-4.3,0-6.8-2.4-6.8-6.7V308h-3.9v16.3c0,6.7,3.7,10.2,10.7,10.2
				c6.7,0,10.6-3.7,10.6-10.2V308h-3.9V324.4z M220.1,322.2h13.3v-3.4h-13.3v-7.3h14.5V308h-18.4v26.2H235v-3.4h-14.9V322.2z"/>
			<path id="CHAMPIONS_1_" d="M84.9,295.1l0.5-0.2v3.3l-0.2,0.1c-2.3,1-5.9,1.5-8.3,1.5c-8.4,0-12.2-4-12.2-12.9
				c0-11.5,6.8-13.9,12.5-13.9c1.4,0,4.8,0.1,7.4,1.4l0.2,0.1v3.2l-0.4-0.1c-2.8-0.8-5.2-0.9-7.3-0.9c-5.7,0-8.4,3.3-8.4,10
				c0,6.9,2.4,9.7,8.5,9.7C79.9,296.3,82.5,295.9,84.9,295.1z M106.4,299.6h3.9v-26.2h-3.9v10.9H92.4v-10.9h-3.9v26.2h3.9v-11.9
				h14.1V299.6z M117.1,299.6H113l10.1-26.1h4.2l10,26.1H133l-2.5-6.9h-10.9L117.1,299.6z M129.2,289.3l-4.2-11.4l-4.2,11.4H129.2z
				 M162.5,273.4l-8.4,14.8l-8.8-14.8h-4.1l-1.5,26.2h3.8l0.8-20.8l8.1,13.5h3.2l8-13.7l0.8,21h3.8l-1.5-26.2H162.5z M191.5,282.1
				c0,4.1-2.4,8.9-9.2,8.9h-6.8v8.5h-3.9v-26.2h10.7C187.7,273.4,191.5,277,191.5,282.1z M175.5,287.6h7c4.2,0,5-3,5-5.5
				c0-3.2-2.1-5.3-5.3-5.3h-6.7V287.6z M198.2,273.4h-3.9v26.2h3.9V273.4z M201.2,286.8c0-9.1,4-13.7,11.9-13.7
				c8.1,0,12,4.5,12,13.7c0,8.7-4.1,13.1-12.1,13.1C204.6,299.9,201.2,296.1,201.2,286.8z M205.1,286.8c0,5.8,1.3,9.7,7.8,9.7
				c5.8,0,8.1-2.8,8.1-9.7c0-6.1-1.4-10.2-8.1-10.2C207.5,276.6,205.1,279.7,205.1,286.8z M246.4,293.1l-14.9-19.8H228v26.2h3.8
				v-19.7l14.9,19.7h3.5v-26.1h-3.8V293.1z M263.7,284.4l-1.1-0.4c-3.5-1.1-5.4-1.8-5.4-4.1c0-2.2,1.8-3.2,5.6-3.2
				c0.4,0,3.9,0,7.4,1.3l0.5,0.2v-3.4l-0.2-0.1c-2.7-1.3-5.7-1.6-7.8-1.6c-6,0-9.5,2.6-9.5,7.1c0,4.9,4.3,6.2,8.1,7.3l0.3,0.1
				c4.5,1.4,6.3,2.7,6.3,4.9c0,1.7-0.6,3.9-5.9,3.9c-2.2,0-5.4-0.2-8.5-1.4l-0.5-0.2v3.4l0.2,0.1c2.3,1.1,5.1,1.7,8.6,1.7
				c6.5,0,10.1-2.6,10.1-7.3C271.9,287.1,267.6,285.6,263.7,284.4z"/>
		</g>
		<path id="FUTSAL_1_" d="M201.3,250.4c0,7.1-6.7,12.5-15.7,12.5c-6.9,0-13.2-2.1-17.9-6l5.2-6.2c4.1,3,8.5,4.6,13.1,4.6
			c3.6,0,5.6-1.4,5.6-3.7c0-2.7-2.5-3.8-7.6-5c-8.1-1.8-14.7-4-14.7-12c0-0.9,0.1-1.6,0.2-2.4l0.1-0.4l0.3-1.2
			c1.8-5.2,7.1-8.3,14.3-8.3c6.2,0,11.3,1.5,15.6,4.7l-4.7,6.5c-3.6-2.4-7.6-3.7-11.2-3.7c-3.7,0-5,1.8-5,3.6c0,2.9,2.5,3.8,7.8,5
			C195.5,240.5,201.3,243.2,201.3,250.4z M215,222.8l-16.7,39.4h9.9l2.7-6.8l6.5-15l3.1-7.7l5.9,15.1h-5.2l-7.1,7h14.2l3,7.3h10.1
			l-16.6-39.4H215z M258.2,254.2l-10.2,7.5l4.2-10.3v-28.3h-9.6l0,39.1H272v-8.1L258.2,254.2z M169.1,223.1h-44.6l0,22.1
			c0,5.9-3.1,9.4-8.5,9.4c-2.5,0-4.5-0.7-6-2.2c-1.7-1.7-2.5-4.2-2.5-7.4l0-21.8H64.8l0,39.1h9.5l0-14.6l11.9,0l6.2-7.6H74.3l0-8.8
			l23.6,0v14c0,5.8,1.5,10.2,4.5,13.2c3,3.1,7.6,4.6,13.5,4.6c12,0,18.3-6.3,18.3-18.1v-10.5l-6.5-10.7l11.9,7.5l9.2,0l0,31h9.5
			l0-31h10.7L169.1,223.1z"/>
		<path id="UEFA_x5F_Arch_2_" d="M159.9,175.7l-8.7,1.8l0.8,4l8-1.6l0.7,3.2l-8,1.6l0.3,1.7c0.4,1.9,1.1,2.2,2.8,1.8l6.4-1.3
			l0.7,3.2l-6.6,1.4c-3.1,0.6-5.8-0.2-6.6-4.1l-2.3-11.2c-0.2-0.8,0.3-1.4,1-1.6l10.9-2.2L159.9,175.7z M180.9,177.6l6.3,1.7
			l0.8-3.2l-6.5-1.7c-3-0.8-5.8-0.1-6.8,3.7l-2.9,11c-0.2,0.8,0.2,1.4,0.9,1.6l2.1,0.6l1.9-7.2l7.9,2.1l0.8-3.2l-7.9-2.1l0.4-1.7
			C178.5,177.4,179.3,177.1,180.9,177.6z M165.9,197.1c11.7,0,22.2,5.2,29.4,13.3l2.1-1.8c-7.7-8.7-18.9-14.3-31.5-14.3
			c-12.5,0-23.8,5.5-31.5,14.3l2.1,1.8C143.7,202.3,154.2,197.1,165.9,197.1z M200.4,205l5.1-17.8c0.2-0.6,0.3-1.3-0.6-1.9l-0.7-0.5
			c-0.8-0.6-1.4-0.4-2,0l-15.5,10.1l3.3,1.8l11.2-7.2l-1.8,6.1l-1.4-1.1l-3,1.9l3.4,2.6l-1,3.4L200.4,205z M136.5,197
			c-0.9,0.8-2.1,1.2-3.1,1.1c-1.3-0.2-2.1-0.7-3.3-2.2l-6.2-7.6l-2.7,2.2l6.7,8.3c1.4,1.7,3,2.7,4.9,2.8c2.1,0.2,4-0.4,5.9-2
			c1.9-1.5,2.9-3.2,3.1-5.3c0.2-1.9-0.4-3.6-1.8-5.4l-6.7-8.3l-2.7,2.2l6.2,7.6c1.2,1.5,1.6,2.4,1.4,3.6
			C138.1,195.2,137.4,196.3,136.5,197z M216.7,186.6c-12.9-13.2-30.9-21.4-50.8-21.4c-19.9,0-37.9,8.2-50.8,21.4l2,1.9
			c12.4-12.7,29.7-20.6,48.8-20.6c19.1,0,36.4,7.9,48.8,20.6L216.7,186.6z"/>
	</g>
	<g id="UFCL_x5F_Icon_x5F_RGB_x5F_Black_x5F_On_x5F_Light">
		<path id="TM_1_" d="M269,178.5h5v0.7h-2.1v5.6h-0.8v-5.6H269V178.5z M280.2,178.5l-2.1,3.7l-2.2-3.7H275l-0.4,6.2h0.8l0.2-5.3
			l2.1,3.5h0.7l2.1-3.6l0.2,5.3h0.8l-0.4-6.2H280.2z"/>
		<path id="UFCL_x5F_Icon_x5F_RGB_x5F_Black_x5F_On_x5F_Light_1_" d="M245,57.2l-3-8.6l84.2-8.8l-73.7,39l-0.7-2L315.9,43l-0.2,0
			l-24.9,7.5h0l-40.7,21.5l-2.6-7.4l17.5-9.4L245,57.2z M203.4,21.9L209,38l8.7-0.9L206.9,6L172,41.9l13.5-1.4L203.4,21.9z
			 M212.7,114.8L187.9,128l68.6,42.4l-22.9-66.6l-1.8,1l20.9,60.9L229.1,151l10.6-5.4l-3.7-4.2l-12.3,6.3l-2.9-1.8l13.1-6.9
			l-3.7-4.2l-14.8,7.8l-3.2-2l15.8-8.3l-3.7-4.2l-17.4,9.2l-3.2-2l18.5-9.8l-3.7-4.1l-20.1,10.6l-2.6-1.6l20.6-11.5L212.7,114.8z
			 M239.7,100.5l29.2,84.2l-88.3-52.9l2.1-1.1l82.4,49.3l-27.3-78.6L239.7,100.5z M116.3,110l-63,65.8l48-25.3l43.9-23.2l-6.9-4.1
			l-65.3,35.1l45.2-47.2L116.3,110z M150.5,130.6l2.1,1.2L14.3,205l95.6-98.8l1.8,1.1l-86.9,89.8L150.5,130.6z M71.3,66.4l36.3,21.7
			l1.5-1.5L77.8,67.9l16.9,2.5h0l18.9,11.7l1.5-1.5l-14.1-8.7l24.9-2.5l9.1-9.5L71.3,66.4L71.3,66.4L71.3,66.4z M201.6,104.4
			l-35.9,19l-23.4-14l-0.2,9.5l23.8,14.3l34.2-18.1L201.6,104.4z M233.3,65.6l7.6-0.8l8.4,24.2l-32.9,17.4l-11.6-3.8l34.9-18.5
			l-1.9-5.5l-37.4,3.8c-0.2,1.8-1,3.6-2.2,5.4c-1.4,2-3.3,3.9-5.6,5.5c-2.4,1.7-5.2,3.2-8.2,4.2c-3.1,1.1-6.3,1.8-9.6,2
			c-3.2,0.2-6.1-0.1-8.6-0.8c-2.4-0.7-4.4-1.7-5.8-3c-1.4-1.3-2.3-2.8-2.7-4.5c-0.3-1.4-0.3-3,0.2-4.6l-32.6,3.3l-5.5,5.7l20.5,12.3
			l-10.3,3.5l-23.4-14l20.2-21l12.8-1.3l-11.6,12l31-3.1c0.9-1.5,2-3,3.4-4.3c1.5-1.5,3.3-2.8,5.3-4c2-1.1,4.1-2.1,6.4-2.9
			c2.3-0.8,4.7-1.3,7.1-1.6c2.5-0.3,4.8-0.3,7-0.1c2.2,0.2,4.2,0.8,5.9,1.5c1.8,0.8,3.3,1.8,4.4,3.1c1,1.2,1.7,2.6,1.9,4.1l36.6-3.8
			L233.3,65.6z M238,56.6l-5.9,5.8l-4.1-12l-22.4,2.4l-0.4,2.9c0,0-0.2,1.5-1.2,2.4c-1,0.9-2.2,1.7-4.1,2.4
			c-1.9,0.7-3.9,1.1-5.9,1.3s-10.5,1-12.7,1.2c-2.2,0.2-4.7,0-6.3-0.6c-1.6-0.6-2.3-1.5-2.7-2.2c-0.4-0.7-0.3-1.5-0.1-2.1
			c0.2-0.6,0.7-1.8,0.7-1.8l-16.7,1.8l-14.1,14.7l-7.2-4.5l17.7-18.4l31-3.3l3.5,8.2l-11.4,1.2c0,0-0.6,2-0.8,2.4
			c-0.1,0.4-0.2,1.5,2.4,2.1c0.8,0.2,2.1,0.3,3.8,0.1c1.7-0.2,9.9-0.9,12.7-1.2c2.8-0.3,4.5-0.8,6.5-1.8c1.5-0.7,2.1-1.7,2.3-2.2
			c0.2-0.5,0.4-2.3,0.4-2.3l-11.2,1.2l8.1-9.4l32.9-3.5L238,56.6z"/>
	</g>
</g>
</svg>
